<?xml version="1.0"?>
<svg xmlns:rdf="http://www.w3.org/1999/02/22-rdf-syntax-ns#" xmlns="http://www.w3.org/2000/svg" xmlns:cc="http://creativecommons.org/ns#" xmlns:xlink="http://www.w3.org/1999/xlink" xmlns:dc="http://purl.org/dc/elements/1.1/" xmlns:svg="http://www.w3.org/2000/svg" id="svg2" viewBox="0 0 68 94" version="1.0">
  <defs id="defs4">
    <linearGradient id="linearGradient3016">
      <stop id="stop3018" stop-color="#949494" offset="0"/>
      <stop id="stop3020" stop-color="#949494" stop-opacity="0" offset="1"/>
    </linearGradient>
    <linearGradient id="linearGradient1417" y2="104.59" xlink:href="#linearGradient3016" gradientUnits="userSpaceOnUse" x2="103.29" gradientTransform="translate(-13.327 -18.22)" y1="27.31" x1="57.074"/>
    <linearGradient id="linearGradient1419" y2="104.59" xlink:href="#linearGradient3016" gradientUnits="userSpaceOnUse" x2="103.29" gradientTransform="matrix(.99842 .056124 -.056124 .99842 -11.4 -7.4936)" y1="27.31" x1="57.074"/>
    <radialGradient id="radialGradient1421" gradientUnits="userSpaceOnUse" cy="98.385" cx="16.074" gradientTransform="matrix(2.2777 1.8145 -1.5547 2.3139 132.31 -174.3)" r="7.395">
      <stop id="stop10767" stop-color="#989898" offset="0"/>
      <stop id="stop10769" stop-color="#989898" stop-opacity="0" offset="1"/>
    </radialGradient>
    <linearGradient id="linearGradient1423" y2="138.12" gradientUnits="userSpaceOnUse" x2="46.517" gradientTransform="translate(-1.3567 -6.4121)" y1="14.79" x1="46.517">
      <stop id="stop10796" stop-color="#989898" offset="0"/>
      <stop id="stop10798" stop-color="#989898" stop-opacity="0" offset="1"/>
    </linearGradient>
  </defs>
  <g id="layer1">
    <g id="g1408" transform="translate(-9.75 -9.25)">
      <path id="path1318" d="m44.235 9.8735c-0.398 0.0403-0.738 0.1915-1 0.4685 2.938 6.761 4.06 16.224 3.907 21.469-0.288 9.735-1.282 16.834-2.719 25.063-1.402 8.028-4.191 15.294-6.75 22.812-1.843 5.994-5.729 0.008-8.5-1.219-3.993-1.768-7.508-1.889-11.375 0-3.867 1.89-6.031 4.677-7 9.063-0.9476 4.287 1.244 9.598 4.812 12.5 3.466 2.82 8.593 3.2 12.75 1.87 4.104-1.42 7.804-5.288 9.344-9.308 0.789-1.869 1.254-2.696 2.188-5.656s2.18-7.297 3.218-11c1.911-6.816 4.563-13.026 6.219-28.375 0.38-3.091 1.15-11.245 1.25-18.531 0.011-0.802 0.225-0.822 0.344-0.844 0.699-0.129 2.309 1.072 4.625 2.594s5.506 3.556 7.062 4.5c7.645 4.635 11.7 10.651 12.063 17.875 0.253 5.045-0.667 8.959-3.469 15-1.057 2.28-1.182 2.797-0.812 3.031 0.703 0.445 0.817 0.375 1.781-1.031 3.01-4.392 4.767-10.958 4.75-17.719-0.011-4.21-0.607-6.78-1.75-9.438-1.585-3.685-5.344-8.647-10.219-13.781-2.6-2.739-5.132-5.415-5.625-5.937-3.464-3.671-8.283-8.649-9.176-11.912-0.175-0.637-4.723-1.6154-5.918-1.4945z"/>
      <path id="path3014" d="m52.288 16.185c0.954 9.296 6.505 15.648 8.791 17.126 0.671 0.428 1.496 0.989 1.875 1.219 7.794 4.725 12.062 11.011 12.438 18.5 0.259 5.159-0.735 9.246-3.563 15.344-0.41 0.885-0.551 1.302-0.687 1.687 0.131-0.163 0.127-0.121 0.343-0.437 2.888-4.212 4.611-10.655 4.594-17.282-0.01-4.152-0.454-6.601-1.656-9.094-0.136-0.282-0.818-1.564-1.469-2.781-0.65-1.216-1.3-2.4-1.437-2.656-0.422-0.788-2.319-3.028-7.188-8.156-2.601-2.74-5.13-5.413-5.625-5.938-2.19-2.32-5.04-5.054-6.416-7.532z" fill="url(#linearGradient1417)"/>
      <g id="g1404">
        <path id="path1357" d="m49.754 43.269c0.056-0.8 0.27-0.808 0.39-0.824 0.705-0.089 2.246 1.2 4.472 2.85 2.227 1.649 5.298 3.859 6.799 4.889 7.372 5.057 11.084 11.291 11.04 18.524-0.03 5.052-1.168 8.907-4.305 14.782-1.184 2.217-1.337 2.726-0.981 2.98 0.678 0.484 0.795 0.421 1.836-0.929 3.252-4.216 5.375-10.673 5.737-17.425 0.226-4.203-0.226-6.803-1.217-9.52-1.376-3.769-4.851-8.934-9.43-14.333-2.442-2.881-4.82-5.695-5.282-6.244-3.253-3.859-7.785-9.101-8.494-12.408-0.139-0.646-1.074 24.927-0.565 17.658z"/>
        <path id="path1363" d="m52.18 30.54c0.431 9.335 5.617 15.989 7.817 17.592 0.645 0.465 1.438 1.072 1.803 1.322 7.517 5.156 11.425 11.671 11.38 19.169-0.031 5.166-1.252 9.191-4.418 15.12-0.46 0.861-0.623 1.27-0.781 1.646 0.141-0.155 0.133-0.114 0.368-0.417 3.119-4.043 5.201-10.379 5.556-16.996 0.223-4.146-0.083-6.617-1.143-9.173-0.12-0.289-0.729-1.608-1.311-2.859-0.581-1.251-1.163-2.47-1.286-2.733-0.376-0.81-2.145-3.153-6.718-8.547-2.443-2.881-4.818-5.692-5.283-6.244-2.057-2.439-4.749-5.329-5.984-7.88z" fill="url(#linearGradient1419)"/>
      </g>
      <path id="path2279" fill="url(#radialGradient1421)" d="m25.388 92.791c-4.175 3.76-9.836 4.212-12.638 1.01-2.8016-3.202-1.688-8.852 2.487-12.612 4.174-3.759 9.835-4.212 12.637-1.009 2.792 3.191 1.699 8.811-2.446 12.575"/>
      <path id="path7829" d="m45.143 10.307c-0.295-0.021-0.566-0.007-0.937 0.031-0.249 0.025-0.379 0.117-0.531 0.219 2.872 6.825 3.965 16.048 3.812 21.281-0.288 9.757-1.281 16.888-2.719 25.125-1.408 8.066-4.102 15.219-6.656 22.719 0.366-0.351 1.319-2.048 1.81-3.557 2.542-7.813 4.33-11.074 6.721-26.037v-0.031l0.063-0.25c0.001-0.011-0.002-0.021 0-0.032 2.304-14.636 2.335-27.424-0.719-39.281-0.319-0.082-0.609-0.171-0.844-0.187z" fill="url(#linearGradient1423)"/>
    </g>
  </g>
  <metadata>
    <rdf:RDF>
      <cc:Work>
        <dc:format>image/svg+xml</dc:format>
        <dc:type rdf:resource="http://purl.org/dc/dcmitype/StillImage"/>
        <cc:license rdf:resource="http://creativecommons.org/licenses/publicdomain/"/>
        <dc:publisher>
          <cc:Agent rdf:about="http://openclipart.org/">
            <dc:title>Openclipart</dc:title>
          </cc:Agent>
        </dc:publisher>
        <dc:title>double_croche</dc:title>
        <dc:date>2008-05-26T11:41:24</dc:date>
        <dc:description>clip art, clipart, image, media, music, music, note, note, png, public domain, svg, </dc:description>
        <dc:source>http://openclipart.org/detail/16984/double_croche-by-jean_victor_balin</dc:source>
        <dc:creator>
          <cc:Agent>
            <dc:title>jean_victor_balin</dc:title>
          </cc:Agent>
        </dc:creator>
        <dc:subject>
          <rdf:Bag>
            <rdf:li>clip art</rdf:li>
            <rdf:li>clipart</rdf:li>
            <rdf:li>image</rdf:li>
            <rdf:li>media</rdf:li>
            <rdf:li>music</rdf:li>
            <rdf:li>note</rdf:li>
            <rdf:li>png</rdf:li>
            <rdf:li>public domain</rdf:li>
            <rdf:li>svg</rdf:li>
          </rdf:Bag>
        </dc:subject>
      </cc:Work>
      <cc:License rdf:about="http://creativecommons.org/licenses/publicdomain/">
        <cc:permits rdf:resource="http://creativecommons.org/ns#Reproduction"/>
        <cc:permits rdf:resource="http://creativecommons.org/ns#Distribution"/>
        <cc:permits rdf:resource="http://creativecommons.org/ns#DerivativeWorks"/>
      </cc:License>
    </rdf:RDF>
  </metadata>
</svg>
